<svg width="26" height="26" viewBox="0 0 26 26" fill="none" xmlns="http://www.w3.org/2000/svg">
<path d="M20.584 15.1683V18.4183H23.834V20.585H20.584V23.835H18.4173V20.585H15.1673V18.4183H18.4173V15.1683H20.584ZM21.9305 5.15507C23.104 6.32833 23.7843 7.90597 23.832 9.56467C23.8798 11.2234 23.2913 12.8375 22.1873 14.0763L20.649 12.5402C22.0898 10.8892 22.014 8.29999 20.3965 6.68582C19.6137 5.90427 18.5615 5.45172 17.4557 5.4209C16.3499 5.39008 15.2742 5.78334 14.449 6.52007L13.0028 7.8179L11.5555 6.52115C10.7339 5.78654 9.66337 5.39253 8.56162 5.41932C7.45988 5.4461 6.40973 5.89167 5.62488 6.66534C4.84002 7.43901 4.37944 8.48266 4.33685 9.58391C4.29426 10.6852 4.67286 11.7613 5.39562 12.5932L14.5303 21.7431L13.0006 23.2771L3.81395 14.0774C2.70815 12.838 2.11876 11.2223 2.16678 9.56205C2.21481 7.90176 2.89661 6.32285 4.07221 5.14947C5.24781 3.97609 6.82801 3.29727 8.48839 3.25238C10.1488 3.20748 11.7633 3.79993 13.0006 4.90807C14.2386 3.80053 15.8537 3.209 17.5142 3.25493C19.1747 3.30087 20.7556 3.98078 21.9305 5.15507Z" fill="#FF006E"/>
</svg>
