<svg width="26" height="26" viewBox="0 0 26 26" fill="none" xmlns="http://www.w3.org/2000/svg">
<path d="M14.3217 2.61791C13.9294 2.31588 13.4456 2.15729 12.9506 2.16853C12.4557 2.17976 11.9796 2.36015 11.6014 2.67966L4.01808 9.17858C3.77736 9.38202 3.58393 9.63554 3.45127 9.92144C3.31861 10.2073 3.24992 10.5187 3.25 10.8339V20.5839C3.25 21.1585 3.47827 21.7096 3.8846 22.116C4.29093 22.5223 4.84203 22.7506 5.41667 22.7506H20.5833C21.158 22.7506 21.7091 22.5223 22.1154 22.116C22.5217 21.7096 22.75 21.1585 22.75 20.5839V12.6171M16.25 22.7506V14.0839C16.25 13.7966 16.1359 13.521 15.9327 13.3179C15.7295 13.1147 15.454 13.0006 15.1667 13.0006H10.8333C10.546 13.0006 10.2705 13.1147 10.0673 13.3179C9.86414 13.521 9.75 13.7966 9.75 14.0839V22.7506M16.25 6.50058H22.75M19.5 3.25058V9.75058" stroke="#FF006E" stroke-width="2" stroke-linecap="round" stroke-linejoin="round"/>
</svg>
