<svg width="26" height="26" viewBox="0 0 26 26" fill="none" xmlns="http://www.w3.org/2000/svg">
<path d="M14.0807 4.33464H11.9141L10.8307 2.16797H15.1641L14.0807 4.33464ZM20.5807 14.0846V23.8346H5.41406V14.0846C5.41406 11.0946 7.84073 8.66797 10.8307 8.66797V6.5013H9.7474V5.41797H16.2474V6.5013H15.1641V8.66797C18.1541 8.66797 20.5807 11.0946 20.5807 14.0846ZM18.4141 14.0846C18.4141 12.2971 16.9516 10.8346 15.1641 10.8346H10.8307C9.04323 10.8346 7.58073 12.2971 7.58073 14.0846V21.668H18.4141V14.0846ZM16.2474 17.3346H14.0807V19.5013H11.9141V17.3346H9.7474V15.168H11.9141V13.0013H14.0807V15.168H16.2474V17.3346Z" fill="#FF006E"/>
</svg>
