<svg width="26" height="26" viewBox="0 0 26 26" fill="none" xmlns="http://www.w3.org/2000/svg">
<path d="M13 2.4375C11.9779 2.4375 11.2515 3.16062 10.8924 4.0625H4.875V22.75H21.125V4.0625H15.1076C14.7485 3.16062 14.0221 2.4375 13 2.4375ZM13 4.0625C13.4509 4.0625 13.8125 4.42406 13.8125 4.875V5.6875H16.25V7.3125H9.75V5.6875H12.1875V4.875C12.1875 4.42406 12.5491 4.0625 13 4.0625ZM6.5 5.6875H8.125V8.9375H17.875V5.6875H19.5V21.125H6.5V5.6875ZM12.1875 11.375V13.8125H9.75V15.4375H12.1875V17.875H13.8125V15.4375H16.25V13.8125H13.8125V11.375H12.1875Z" fill="#FF006E"/>
</svg>
