<svg width="26" height="26" viewBox="0 0 26 26" fill="none" xmlns="http://www.w3.org/2000/svg">
<path d="M2.16406 22.75C2.16397 21.082 2.64521 19.4494 3.55002 18.0482C4.45483 16.647 5.74478 15.5366 7.26504 14.8503C8.78531 14.1641 10.4713 13.9311 12.1207 14.1794C13.7701 14.4277 15.3128 15.1466 16.5637 16.25M20.5807 17.3333V23.8333M23.8307 20.5833H17.3307M16.2474 8.66667C16.2474 11.6582 13.8223 14.0833 10.8307 14.0833C7.83919 14.0833 5.41406 11.6582 5.41406 8.66667C5.41406 5.67512 7.83919 3.25 10.8307 3.25C13.8223 3.25 16.2474 5.67512 16.2474 8.66667Z" stroke="#FF006E" stroke-width="2" stroke-linecap="round" stroke-linejoin="round"/>
</svg>
