<svg width="26" height="27" viewBox="0 0 26 27" fill="none" xmlns="http://www.w3.org/2000/svg">
<path d="M19.5 3.625H17.25V2.875C17.25 2.67609 17.171 2.48532 17.0303 2.34467C16.8897 2.20402 16.6989 2.125 16.5 2.125C16.3011 2.125 16.1103 2.20402 15.9697 2.34467C15.829 2.48532 15.75 2.67609 15.75 2.875V3.625H8.25V2.875C8.25 2.67609 8.17098 2.48532 8.03033 2.34467C7.88968 2.20402 7.69891 2.125 7.5 2.125C7.30109 2.125 7.11032 2.20402 6.96967 2.34467C6.82902 2.48532 6.75 2.67609 6.75 2.875V3.625H4.5C4.10218 3.625 3.72064 3.78304 3.43934 4.06434C3.15804 4.34564 3 4.72718 3 5.125V20.125C3 20.5228 3.15804 20.9044 3.43934 21.1857C3.72064 21.467 4.10218 21.625 4.5 21.625H19.5C19.8978 21.625 20.2794 21.467 20.5607 21.1857C20.842 20.9044 21 20.5228 21 20.125V5.125C21 4.72718 20.842 4.34564 20.5607 4.06434C20.2794 3.78304 19.8978 3.625 19.5 3.625ZM6.75 5.125V5.875C6.75 6.07391 6.82902 6.26468 6.96967 6.40533C7.11032 6.54598 7.30109 6.625 7.5 6.625C7.69891 6.625 7.88968 6.54598 8.03033 6.40533C8.17098 6.26468 8.25 6.07391 8.25 5.875V5.125H15.75V5.875C15.75 6.07391 15.829 6.26468 15.9697 6.40533C16.1103 6.54598 16.3011 6.625 16.5 6.625C16.6989 6.625 16.8897 6.54598 17.0303 6.40533C17.171 6.26468 17.25 6.07391 17.25 5.875V5.125H19.5V8.125H4.5V5.125H6.75ZM19.5 20.125H4.5V9.625H19.5V20.125ZM13.125 13C13.125 13.2225 13.059 13.44 12.9354 13.625C12.8118 13.81 12.6361 13.9542 12.4305 14.0394C12.225 14.1245 11.9988 14.1468 11.7805 14.1034C11.5623 14.06 11.3618 13.9528 11.2045 13.7955C11.0472 13.6382 10.94 13.4377 10.8966 13.2195C10.8532 13.0012 10.8755 12.775 10.9606 12.5695C11.0458 12.3639 11.19 12.1882 11.375 12.0646C11.56 11.941 11.7775 11.875 12 11.875C12.2984 11.875 12.5845 11.9935 12.7955 12.2045C13.0065 12.4155 13.125 12.7016 13.125 13ZM17.25 13C17.25 13.2225 17.184 13.44 17.0604 13.625C16.9368 13.81 16.7611 13.9542 16.5555 14.0394C16.35 14.1245 16.1238 14.1468 15.9055 14.1034C15.6873 14.06 15.4868 13.9528 15.3295 13.7955C15.1722 13.6382 15.065 13.4377 15.0216 13.2195C14.9782 13.0012 15.0005 12.775 15.0856 12.5695C15.1708 12.3639 15.315 12.1882 15.5 12.0646C15.685 11.941 15.9025 11.875 16.125 11.875C16.4234 11.875 16.7095 11.9935 16.9205 12.2045C17.1315 12.4155 17.25 12.7016 17.25 13ZM9 16.75C9 16.9725 8.93402 17.19 8.8104 17.375C8.68679 17.56 8.51109 17.7042 8.30552 17.7894C8.09995 17.8745 7.87375 17.8968 7.65552 17.8534C7.43729 17.81 7.23684 17.7028 7.0795 17.5455C6.92217 17.3882 6.81502 17.1877 6.77162 16.9695C6.72821 16.7512 6.75049 16.525 6.83564 16.3195C6.92078 16.1139 7.06498 15.9382 7.24998 15.8146C7.43499 15.691 7.6525 15.625 7.875 15.625C8.17337 15.625 8.45952 15.7435 8.6705 15.9545C8.88147 16.1655 9 16.4516 9 16.75ZM13.125 16.75C13.125 16.9725 13.059 17.19 12.9354 17.375C12.8118 17.56 12.6361 17.7042 12.4305 17.7894C12.225 17.8745 11.9988 17.8968 11.7805 17.8534C11.5623 17.81 11.3618 17.7028 11.2045 17.5455C11.0472 17.3882 10.94 17.1877 10.8966 16.9695C10.8532 16.7512 10.8755 16.525 10.9606 16.3195C11.0458 16.1139 11.19 15.9382 11.375 15.8146C11.56 15.691 11.7775 15.625 12 15.625C12.2984 15.625 12.5845 15.7435 12.7955 15.9545C13.0065 16.1655 13.125 16.4516 13.125 16.75ZM17.25 16.75C17.25 16.9725 17.184 17.19 17.0604 17.375C16.9368 17.56 16.7611 17.7042 16.5555 17.7894C16.35 17.8745 16.1238 17.8968 15.9055 17.8534C15.6873 17.81 15.4868 17.7028 15.3295 17.5455C15.1722 17.3882 15.065 17.1877 15.0216 16.9695C14.9782 16.7512 15.0005 16.525 15.0856 16.3195C15.1708 16.1139 15.315 15.9382 15.5 15.8146C15.685 15.691 15.9025 15.625 16.125 15.625C16.4234 15.625 16.7095 15.7435 16.9205 15.9545C17.1315 16.1655 17.25 16.4516 17.25 16.75Z" fill="black"/>
</svg>
