<svg width="50" height="50" viewBox="0 0 50 50" fill="none" xmlns="http://www.w3.org/2000/svg">
<g id="healthicons:hospital">
<g id="Group">
<path id="Vector" d="M16.668 20.8359H20.8346V23.9609H16.668V20.8359ZM20.8346 26.0443H16.668V29.1693H20.8346V26.0443ZM16.668 31.2526H20.8346V34.3776H16.668V31.2526ZM27.0846 20.8359H22.918V23.9609H27.0846V20.8359ZM22.918 26.0443H27.0846V29.1693H22.918V26.0443ZM27.0846 31.2526H22.918V34.3776H27.0846V31.2526ZM29.168 20.8359H33.3346V23.9609H29.168V20.8359ZM33.3346 26.0443H29.168V29.1693H33.3346V26.0443ZM29.168 31.2526H33.3346V34.3776H29.168V31.2526Z" fill="#FF006E"/>
<path id="Vector_2" fill-rule="evenodd" clip-rule="evenodd" d="M32.2923 6.2513C32.2923 5.69877 32.0728 5.16886 31.6821 4.77816C31.2914 4.38746 30.7615 4.16797 30.209 4.16797H19.7923C19.2398 4.16797 18.7099 4.38746 18.3192 4.77816C17.9285 5.16886 17.709 5.69877 17.709 6.2513H10.4173V8.33464H12.5007V43.7513H9.37565C9.09938 43.7513 8.83443 43.861 8.63908 44.0564C8.44373 44.2517 8.33398 44.5167 8.33398 44.793C8.33398 45.0692 8.44373 45.3342 8.63908 45.5295C8.83443 45.7249 9.09938 45.8346 9.37565 45.8346H40.6256C40.9019 45.8346 41.1669 45.7249 41.3622 45.5295C41.5576 45.3342 41.6673 45.0692 41.6673 44.793C41.6673 44.5167 41.5576 44.2517 41.3622 44.0564C41.1669 43.861 40.9019 43.7513 40.6256 43.7513H37.5007V8.33464H39.584V6.2513H32.2923ZM30.209 18.7513C30.7615 18.7513 31.2914 18.5318 31.6821 18.1411C32.0728 17.7504 32.2923 17.2205 32.2923 16.668V11.4596H35.4173V43.7513H32.2923V39.5846H33.334V37.5013H16.6673V39.5846H17.709V43.7513H14.584V11.4596H17.709V16.668C17.709 17.2205 17.9285 17.7504 18.3192 18.1411C18.7099 18.5318 19.2398 18.7513 19.7923 18.7513H30.209ZM23.959 43.7513H26.0423V39.5846H23.959V43.7513ZM35.4173 8.33464V9.3763H32.2923V8.33464H35.4173ZM14.584 9.3763H17.709V8.33464H14.584V9.3763ZM20.834 10.418H23.959V7.29297H26.0423V10.418H29.1673V12.5013H26.0423V15.6263H23.959V12.5013H20.834V10.418Z" fill="#FF006E"/>
</g>
</g>
</svg>
