<svg width="26" height="26" viewBox="0 0 26 26" fill="none" xmlns="http://www.w3.org/2000/svg">
<g id="material-symbols-light:cancel-outline">
<path id="Vector" d="M9.1 17.667L13 13.767L16.9 17.667L17.667 16.9L13.767 13L17.667 9.1L16.9 8.333L13 12.233L9.1 8.333L8.333 9.1L12.233 13L8.333 16.9L9.1 17.667ZM13.0033 22.75C11.6556 22.75 10.3881 22.4943 9.20075 21.983C8.01414 21.4709 6.98172 20.7762 6.1035 19.8987C5.22528 19.0212 4.53014 17.9898 4.01808 16.8047C3.50603 15.6195 3.25 14.3524 3.25 13.0033C3.25 11.6541 3.50603 10.3866 4.01808 9.20075C4.52942 8.01414 5.22311 6.98172 6.09917 6.1035C6.97522 5.22528 8.00692 4.53014 9.19425 4.01808C10.3816 3.50603 11.6491 3.25 12.9968 3.25C14.3444 3.25 15.6119 3.50603 16.7993 4.01808C17.9859 4.52942 19.0183 5.22347 19.8965 6.10025C20.7747 6.97703 21.4699 8.00872 21.9819 9.19533C22.494 10.3819 22.75 11.6491 22.75 12.9968C22.75 14.3444 22.4943 15.6119 21.983 16.7993C21.4717 17.9866 20.7769 19.019 19.8987 19.8965C19.0204 20.774 17.9891 21.4691 16.8047 21.9819C15.6202 22.4947 14.3531 22.7507 13.0033 22.75ZM13 21.6667C15.4194 21.6667 17.4687 20.8271 19.1479 19.1479C20.8271 17.4687 21.6667 15.4194 21.6667 13C21.6667 10.5806 20.8271 8.53125 19.1479 6.85208C17.4687 5.17292 15.4194 4.33333 13 4.33333C10.5806 4.33333 8.53125 5.17292 6.85208 6.85208C5.17292 8.53125 4.33333 10.5806 4.33333 13C4.33333 15.4194 5.17292 17.4687 6.85208 19.1479C8.53125 20.8271 10.5806 21.6667 13 21.6667Z" fill="#D11313"/>
</g>
</svg>
