<svg width="26" height="27" viewBox="0 0 26 27" fill="none" xmlns="http://www.w3.org/2000/svg">
<path fill-rule="evenodd" clip-rule="evenodd" d="M7.58594 13.625V17.9583H11.9193V13.625H7.58594ZM10.8359 16.875V14.7083H8.66927V16.875H10.8359Z" fill="black"/>
<path fill-rule="evenodd" clip-rule="evenodd" d="M10.2917 3.875C9.62092 3.87484 8.96655 4.08221 8.41833 4.46867C7.87011 4.85513 7.45488 5.40175 7.22962 6.03354H3.25V7.37742L5.41667 9.01867V22.2917H3.79167C3.64801 22.2917 3.51023 22.3487 3.40865 22.4503C3.30707 22.5519 3.25 22.6897 3.25 22.8333C3.25 22.977 3.30707 23.1148 3.40865 23.2163C3.51023 23.3179 3.64801 23.375 3.79167 23.375H5.41667V23.3831H20.5833V23.375H22.2083C22.352 23.375 22.4898 23.3179 22.5913 23.2163C22.6929 23.1148 22.75 22.977 22.75 22.8333C22.75 22.6897 22.6929 22.5519 22.5913 22.4503C22.4898 22.3487 22.352 22.2917 22.2083 22.2917H20.5833V9.03817L23.0208 7.39692V6.033H13.3537C13.1284 5.40131 12.7131 4.85481 12.1649 4.46845C11.6167 4.08209 10.9623 3.8748 10.2917 3.875ZM13.357 8.20833C13.4796 7.86033 13.542 7.49398 13.5417 7.125V7.11687H21.4971L19.8765 8.20833H13.357ZM12.714 9.29167C12.4092 9.63248 12.0358 9.90514 11.6184 10.0918C11.201 10.2785 10.7489 10.375 10.2917 10.375C9.83441 10.375 9.38231 10.2785 8.9649 10.0918C8.54749 9.90514 8.17417 9.63248 7.86933 9.29167H6.5V22.2917H13V13.625H18.4167V22.2917H19.5V9.29167H12.714ZM7.04167 7.125C7.04167 7.50471 7.10667 7.86925 7.22637 8.20833H6.14033L4.6995 7.11687H7.04167V7.125ZM10.8333 6.58333V5.5H9.75V6.58333H8.66667V7.66667H9.75V8.75H10.8333V7.66667H11.9167V6.58333H10.8333ZM17.3333 14.7083V22.2917H14.0833V14.7083H17.3333Z" fill="black"/>
</svg>
