<svg width="21" height="20" viewBox="0 0 21 20" fill="none" xmlns="http://www.w3.org/2000/svg">
<g id="fluent:clock-16-regular">
<path id="Vector" d="M3 10C3 9.01509 3.19399 8.03982 3.5709 7.12987C3.94781 6.21993 4.50026 5.39314 5.1967 4.6967C5.89314 4.00026 6.71993 3.44781 7.62987 3.0709C8.53982 2.69399 9.51509 2.5 10.5 2.5C11.4849 2.5 12.4602 2.69399 13.3701 3.0709C14.2801 3.44781 15.1069 4.00026 15.8033 4.6967C16.4997 5.39314 17.0522 6.21993 17.4291 7.12987C17.806 8.03982 18 9.01509 18 10C18 11.9891 17.2098 13.8968 15.8033 15.3033C14.3968 16.7098 12.4891 17.5 10.5 17.5C8.51088 17.5 6.60322 16.7098 5.1967 15.3033C3.79018 13.8968 3 11.9891 3 10ZM10.5 1.25C8.17936 1.25 5.95376 2.17187 4.31282 3.81282C2.67187 5.45376 1.75 7.67936 1.75 10C1.75 12.3206 2.67187 14.5462 4.31282 16.1872C5.95376 17.8281 8.17936 18.75 10.5 18.75C12.8206 18.75 15.0462 17.8281 16.6872 16.1872C18.3281 14.5462 19.25 12.3206 19.25 10C19.25 7.67936 18.3281 5.45376 16.6872 3.81282C15.0462 2.17187 12.8206 1.25 10.5 1.25ZM10.5 5.625C10.5 5.45924 10.4342 5.30027 10.3169 5.18306C10.1997 5.06585 10.0408 5 9.875 5C9.70924 5 9.55027 5.06585 9.43306 5.18306C9.31585 5.30027 9.25 5.45924 9.25 5.625V10.625C9.25 10.7908 9.31585 10.9497 9.43306 11.0669C9.55027 11.1842 9.70924 11.25 9.875 11.25H13.625C13.7908 11.25 13.9497 11.1842 14.0669 11.0669C14.1842 10.9497 14.25 10.7908 14.25 10.625C14.25 10.4592 14.1842 10.3003 14.0669 10.1831C13.9497 10.0658 13.7908 10 13.625 10H10.5V5.625Z" fill="black"/>
</g>
</svg>
