<svg width="27" height="27" viewBox="0 0 27 27" fill="none" xmlns="http://www.w3.org/2000/svg">
<path d="M23.6504 5.58984H4.15039C3.9349 5.58984 3.72824 5.67545 3.57587 5.82782C3.42349 5.98019 3.33789 6.18686 3.33789 6.40234V20.2148C3.33789 20.6458 3.5091 21.0591 3.81384 21.3639C4.11859 21.6686 4.53191 21.8398 4.96289 21.8398H22.8379C23.2689 21.8398 23.6822 21.6686 23.9869 21.3639C24.2917 21.0591 24.4629 20.6458 24.4629 20.2148V6.40234C24.4629 6.18686 24.3773 5.98019 24.2249 5.82782C24.0725 5.67545 23.8659 5.58984 23.6504 5.58984ZM21.5612 7.21484L13.9004 14.2379L6.23953 7.21484H21.5612ZM22.8379 20.2148H4.96289V8.24977L13.3509 15.9391C13.5008 16.0767 13.6969 16.153 13.9004 16.153C14.1039 16.153 14.2999 16.0767 14.4498 15.9391L22.8379 8.24977V20.2148Z" fill="black"/>
</svg>
