<svg width="20" height="20" viewBox="0 0 20 20" fill="none" xmlns="http://www.w3.org/2000/svg">
<path d="M6.09961 14.1788L9.77711 14.1663L17.8038 6.2163C18.1188 5.9013 18.2921 5.48297 18.2921 5.03797C18.2921 4.59297 18.1188 4.17464 17.8038 3.85964L16.4821 2.53797C15.8521 1.90797 14.7529 1.9113 14.1279 2.53547L6.09961 10.4871V14.1788ZM15.3038 3.7163L16.6279 5.03547L15.2971 6.3538L13.9754 5.03297L15.3038 3.7163ZM7.76628 11.1821L12.7913 6.20464L14.1129 7.5263L9.08878 12.5021L7.76628 12.5063V11.1821Z" fill="#2CA74D"/>
<path d="M4.16667 17.5H15.8333C16.7525 17.5 17.5 16.7525 17.5 15.8333V8.61L15.8333 10.2767V15.8333H6.79833C6.77667 15.8333 6.75417 15.8417 6.7325 15.8417C6.705 15.8417 6.6775 15.8342 6.64917 15.8333H4.16667V4.16667H9.8725L11.5392 2.5H4.16667C3.2475 2.5 2.5 3.2475 2.5 4.16667V15.8333C2.5 16.7525 3.2475 17.5 4.16667 17.5Z" fill="#2CA74D"/>
</svg>
