<svg width="27" height="26" viewBox="0 0 27 26" fill="none" xmlns="http://www.w3.org/2000/svg">
<path d="M19.989 1.72773C18.8962 1.61184 17.7979 1.55542 16.699 1.55873C13.0557 1.55873 10.7915 3.87923 10.7915 7.61456V10.1506H7.73112C7.58746 10.1506 7.44969 10.2077 7.3481 10.3093C7.24652 10.4109 7.18945 10.5487 7.18945 10.6923V14.8631C7.18945 15.0068 7.24652 15.1446 7.3481 15.2462C7.44969 15.3477 7.58746 15.4048 7.73112 15.4048H10.7915V23.7681C10.7915 23.9118 10.8486 24.0496 10.9502 24.1512C11.0518 24.2527 11.1895 24.3098 11.3332 24.3098H15.6427C15.7864 24.3098 15.9241 24.2527 16.0257 24.1512C16.1273 24.0496 16.1844 23.9118 16.1844 23.7681V15.4048H19.235C19.3665 15.4049 19.4936 15.3571 19.5925 15.2704C19.6913 15.1837 19.7553 15.064 19.7724 14.9336L20.3108 10.7627C20.3208 10.6863 20.3144 10.6086 20.292 10.5348C20.2696 10.461 20.2316 10.3929 20.1808 10.335C20.1299 10.277 20.0673 10.2306 19.997 10.1988C19.9268 10.167 19.8506 10.1506 19.7735 10.1506H16.1844V8.0284C16.1844 6.97756 16.3956 6.53881 17.7097 6.53881H19.9186C20.0623 6.53881 20.2001 6.48175 20.3016 6.38016C20.4032 6.27858 20.4603 6.14081 20.4603 5.99715V2.26506C20.4604 2.13356 20.4126 2.00652 20.3259 1.90765C20.2391 1.80878 20.1194 1.74483 19.989 1.72773ZM19.377 5.4544L17.7086 5.45548C15.3719 5.45548 15.101 6.92448 15.101 8.0284V10.6934C15.101 10.8369 15.158 10.9745 15.2593 11.076C15.3607 11.1776 15.4981 11.2348 15.6416 11.2351H19.1581L18.7584 14.3226H15.6427C15.499 14.3226 15.3613 14.3796 15.2597 14.4812C15.1581 14.5828 15.101 14.7206 15.101 14.8642V23.2254H11.8749V14.8642C11.8749 14.7206 11.8178 14.5828 11.7162 14.4812C11.6146 14.3796 11.4769 14.3226 11.3332 14.3226H8.27387V11.2351H11.3332C11.4769 11.2351 11.6146 11.178 11.7162 11.0764C11.8178 10.9748 11.8749 10.8371 11.8749 10.6934V7.61456C11.8749 4.50106 13.6786 2.64206 16.699 2.64206C17.792 2.64206 18.779 2.70165 19.377 2.75365V5.4544Z" fill="black"/>
</svg>
