<svg width="26" height="26" viewBox="0 0 26 26" fill="none" xmlns="http://www.w3.org/2000/svg">
<path d="M5.4165 3.25H19.4998C20.3618 3.25 21.1884 3.59241 21.7979 4.2019C22.4074 4.8114 22.7498 5.63805 22.7498 6.5V16.25C22.7498 17.112 22.4074 17.9386 21.7979 18.5481C21.1884 19.1576 20.3618 19.5 19.4998 19.5H14.5273L10.519 23.5192C10.324 23.7142 10.0532 23.8333 9.74984 23.8333C9.46252 23.8333 9.18697 23.7192 8.9838 23.516C8.78064 23.3129 8.6665 23.0373 8.6665 22.75V19.5H5.4165C4.55455 19.5 3.7279 19.1576 3.11841 18.5481C2.50891 17.9386 2.1665 17.112 2.1665 16.25V6.5C2.1665 5.63805 2.50891 4.8114 3.11841 4.2019C3.7279 3.59241 4.55455 3.25 5.4165 3.25ZM19.4998 4.33333H5.4165C4.84187 4.33333 4.29077 4.56161 3.88444 4.96794C3.47811 5.37426 3.24984 5.92536 3.24984 6.5V16.25C3.24984 16.8246 3.47811 17.3757 3.88444 17.7821C4.29077 18.1884 4.84187 18.4167 5.4165 18.4167H9.74984V22.75L14.0832 18.4167H19.4998C20.0745 18.4167 20.6256 18.1884 21.0319 17.7821C21.4382 17.3757 21.6665 16.8246 21.6665 16.25V6.5C21.6665 5.92536 21.4382 5.37426 21.0319 4.96794C20.6256 4.56161 20.0745 4.33333 19.4998 4.33333ZM5.4165 7.58333H19.4998V8.66667H5.4165V7.58333ZM5.4165 10.8333H18.4165V11.9167H5.4165V10.8333ZM5.4165 14.0833H14.0832V15.1667H5.4165V14.0833Z" fill="black"/>
</svg>
