<svg width="51" height="50" viewBox="0 0 51 50" fill="none" xmlns="http://www.w3.org/2000/svg">
<g id="mdi-light:image">
<path id="Vector" d="M10.916 6.25H37.9993C39.657 6.25 41.2467 6.90848 42.4188 8.08058C43.5909 9.25269 44.2493 10.8424 44.2493 12.5V39.5833C44.2493 41.2409 43.5909 42.8306 42.4188 44.0028C41.2467 45.1749 39.657 45.8333 37.9993 45.8333H10.916C9.25841 45.8333 7.6687 45.1749 6.4966 44.0028C5.3245 42.8306 4.66602 41.2409 4.66602 39.5833V12.5C4.66602 10.8424 5.3245 9.25269 6.4966 8.08058C7.6687 6.90848 9.25841 6.25 10.916 6.25ZM10.916 8.33333C9.81095 8.33333 8.75114 8.77232 7.96974 9.55372C7.18834 10.3351 6.74935 11.3949 6.74935 12.5V36.6458L15.6868 27.6875L20.8952 32.8958L31.3118 22.4792L42.166 33.3333V12.5C42.166 11.3949 41.727 10.3351 40.9456 9.55372C40.1642 8.77232 39.1044 8.33333 37.9993 8.33333H10.916ZM20.8952 35.8542L15.6868 30.6458L6.74935 39.5833C6.74935 40.6884 7.18834 41.7482 7.96974 42.5296C8.75114 43.311 9.81095 43.75 10.916 43.75H37.9993C39.1044 43.75 40.1642 43.311 40.9456 42.5296C41.727 41.7482 42.166 40.6884 42.166 39.5833V36.2708L31.3118 25.4375L20.8952 35.8542ZM16.1243 12.5C17.5057 12.5 18.8304 13.0487 19.8072 14.0255C20.7839 15.0022 21.3327 16.327 21.3327 17.7083C21.3327 19.0897 20.7839 20.4144 19.8072 21.3912C18.8304 22.3679 17.5057 22.9167 16.1243 22.9167C14.743 22.9167 13.4183 22.3679 12.4415 21.3912C11.4647 20.4144 10.916 19.0897 10.916 17.7083C10.916 16.327 11.4647 15.0022 12.4415 14.0255C13.4183 13.0487 14.743 12.5 16.1243 12.5ZM16.1243 14.5833C15.2955 14.5833 14.5007 14.9126 13.9146 15.4986C13.3286 16.0847 12.9993 16.8795 12.9993 17.7083C12.9993 18.5371 13.3286 19.332 13.9146 19.918C14.5007 20.5041 15.2955 20.8333 16.1243 20.8333C16.9531 20.8333 17.748 20.5041 18.3341 19.918C18.9201 19.332 19.2493 18.5371 19.2493 17.7083C19.2493 16.8795 18.9201 16.0847 18.3341 15.4986C17.748 14.9126 16.9531 14.5833 16.1243 14.5833Z" fill="#757575"/>
</g>
</svg>
