<svg width="26" height="26" viewBox="0 0 26 26" fill="none" xmlns="http://www.w3.org/2000/svg">
<path d="M12.1875 21.9414C12.1875 22.1569 12.1019 22.3636 11.9495 22.5159C11.7972 22.6683 11.5905 22.7539 11.375 22.7539H4.875C4.65951 22.7539 4.45285 22.6683 4.30048 22.5159C4.1481 22.3636 4.0625 22.1569 4.0625 21.9414V4.06641C4.0625 3.85092 4.1481 3.64426 4.30048 3.49188C4.45285 3.33951 4.65951 3.25391 4.875 3.25391H11.375C11.5905 3.25391 11.7972 3.33951 11.9495 3.49188C12.1019 3.64426 12.1875 3.85092 12.1875 4.06641C12.1875 4.28189 12.1019 4.48856 11.9495 4.64093C11.7972 4.7933 11.5905 4.87891 11.375 4.87891H5.6875V21.1289H11.375C11.5905 21.1289 11.7972 21.2145 11.9495 21.3669C12.1019 21.5193 12.1875 21.7259 12.1875 21.9414ZM23.3248 12.4291L19.2623 8.36656C19.1099 8.2141 18.9031 8.12845 18.6875 8.12845C18.4719 8.12845 18.2651 8.2141 18.1127 8.36656C17.9602 8.51902 17.8745 8.7258 17.8745 8.94141C17.8745 9.15701 17.9602 9.36379 18.1127 9.51625L20.7888 12.1914H11.375C11.1595 12.1914 10.9528 12.277 10.8005 12.4294C10.6481 12.5818 10.5625 12.7884 10.5625 13.0039C10.5625 13.2194 10.6481 13.4261 10.8005 13.5784C10.9528 13.7308 11.1595 13.8164 11.375 13.8164H20.7888L18.1127 16.4916C17.9602 16.644 17.8745 16.8508 17.8745 17.0664C17.8745 17.282 17.9602 17.4888 18.1127 17.6413C18.2651 17.7937 18.4719 17.8794 18.6875 17.8794C18.9031 17.8794 19.1099 17.7937 19.2623 17.6413L23.3248 13.5788C23.4004 13.5033 23.4603 13.4137 23.5012 13.315C23.5421 13.2164 23.5631 13.1107 23.5631 13.0039C23.5631 12.8971 23.5421 12.7914 23.5012 12.6928C23.4603 12.5941 23.4004 12.5045 23.3248 12.4291Z" fill="black"/>
</svg>
