<svg width="26" height="26" viewBox="0 0 26 26" fill="none" xmlns="http://www.w3.org/2000/svg">
<path d="M10.5625 3.45294H5.6875C5.3104 3.45294 4.94874 3.60275 4.68208 3.8694C4.41543 4.13605 4.26563 4.49771 4.26562 4.87482V21.1248C4.26563 21.5019 4.41543 21.8636 4.68208 22.1302C4.94874 22.3969 5.3104 22.5467 5.6875 22.5467H10.5625C10.7492 22.5467 10.9341 22.5099 11.1066 22.4385C11.2791 22.367 11.4359 22.2623 11.5679 22.1302C11.7 21.9982 11.8047 21.8415 11.8761 21.6689C11.9476 21.4964 11.9844 21.3115 11.9844 21.1248V4.87482C11.9844 4.6881 11.9476 4.5032 11.8761 4.33069C11.8047 4.15818 11.7 4.00143 11.5679 3.8694C11.4359 3.73737 11.2791 3.63263 11.1066 3.56118C10.9341 3.48972 10.7492 3.45294 10.5625 3.45294ZM5.48438 7.92169H10.7656V18.0779H5.48438V7.92169ZM5.6875 4.67169H10.5625C10.6164 4.67169 10.668 4.69309 10.7061 4.73119C10.7442 4.76928 10.7656 4.82095 10.7656 4.87482V6.70294H5.48438V4.87482C5.48438 4.82095 5.50578 4.76928 5.54387 4.73119C5.58196 4.69309 5.63363 4.67169 5.6875 4.67169ZM10.5625 21.3279H5.6875C5.63363 21.3279 5.58196 21.3065 5.54387 21.2684C5.50578 21.2304 5.48438 21.1787 5.48438 21.1248V19.2967H10.7656V21.1248C10.7656 21.1787 10.7442 21.2304 10.7061 21.2684C10.668 21.3065 10.6164 21.3279 10.5625 21.3279ZM23.3289 19.8045L19.958 3.77388C19.92 3.59036 19.8461 3.41618 19.7405 3.26134C19.6349 3.10651 19.4997 2.97407 19.3427 2.87166C19.1858 2.76926 19.0101 2.69889 18.8258 2.66461C18.6416 2.63033 18.4524 2.63282 18.2691 2.67193L13.5149 3.69365C13.147 3.77452 12.8258 3.99722 12.621 4.31342C12.4162 4.62961 12.3444 5.0138 12.4211 5.38263L15.792 21.4102C15.8303 21.5944 15.9048 21.7691 16.0111 21.9242C16.1175 22.0794 16.2536 22.2119 16.4115 22.3141C16.64 22.4636 16.9072 22.5434 17.1803 22.5436C17.2828 22.5441 17.385 22.5332 17.485 22.5111L22.2391 21.4904C22.6057 21.4086 22.9254 21.186 23.1292 20.8706C23.3331 20.5552 23.4048 20.1723 23.3289 19.8045ZM14.9185 11.3423L20.0708 10.2353L21.5048 17.0562L16.3516 18.1602L14.9185 11.3423ZM14.2452 8.13701L19.3984 7.02693L19.8199 9.03888L14.6677 10.1459L14.2452 8.13701ZM13.7719 4.88701L18.525 3.8663C18.5392 3.86481 18.5535 3.86481 18.5677 3.8663C18.6056 3.86641 18.6427 3.87771 18.6743 3.8988C18.6976 3.91366 18.7177 3.93312 18.7332 3.956C18.7488 3.97888 18.7595 4.00469 18.7647 4.03185L19.1455 5.84169L13.9943 6.9406L13.6145 5.13482C13.6026 5.08084 13.6125 5.02436 13.6419 4.9776C13.6714 4.93085 13.7181 4.89757 13.7719 4.88497V4.88701ZM21.9791 20.3042L17.225 21.3279C17.1995 21.3336 17.1732 21.3341 17.1476 21.3294C17.1219 21.3246 17.0975 21.3148 17.0757 21.3005C17.0524 21.2857 17.0323 21.2662 17.0168 21.2433C17.0012 21.2204 16.9905 21.1946 16.9853 21.1675L16.6045 19.3576L21.7557 18.2506L22.1406 20.0513C22.1466 20.0784 22.1471 20.1064 22.1422 20.1337C22.1374 20.161 22.1271 20.187 22.1121 20.2103C22.0971 20.2337 22.0776 20.2538 22.0548 20.2695C22.032 20.2853 22.0063 20.2964 21.9791 20.3022V20.3042Z" fill="black"/>
</svg>
