<svg width="26" height="26" viewBox="0 0 26 26" fill="none" xmlns="http://www.w3.org/2000/svg">
<path d="M3.25 5.6875V18.6875C3.25 19.1185 3.4212 19.5318 3.72595 19.8365C4.0307 20.1413 4.44402 20.3125 4.875 20.3125H21.125C21.556 20.3125 21.9693 20.1413 22.274 19.8365C22.5788 19.5318 22.75 19.1185 22.75 18.6875V5.6875H3.25ZM3.25 4.0625H22.75C23.181 4.0625 23.5943 4.2337 23.899 4.53845C24.2038 4.8432 24.375 5.25652 24.375 5.6875V18.6875C24.375 19.5495 24.0326 20.3761 23.4231 20.9856C22.8136 21.5951 21.987 21.9375 21.125 21.9375H4.875C4.01305 21.9375 3.1864 21.5951 2.5769 20.9856C1.96741 20.3761 1.625 19.5495 1.625 18.6875V5.6875C1.625 5.25652 1.7962 4.8432 2.10095 4.53845C2.4057 4.2337 2.81902 4.0625 3.25 4.0625Z" fill="black"/>
<path d="M22.9531 5.6875L16.6693 12.87C16.2117 13.3931 15.6476 13.8123 15.0147 14.0995C14.3819 14.3867 13.695 14.5353 13 14.5353C12.305 14.5353 11.6181 14.3867 10.9853 14.0995C10.3524 13.8123 9.78832 13.3931 9.33075 12.87L3.04688 5.6875H22.9531ZM5.2065 5.6875L10.5527 11.7991C10.8578 12.1479 11.2339 12.4275 11.6558 12.619C12.0778 12.8105 12.5358 12.9096 12.9992 12.9096C13.4626 12.9096 13.9206 12.8105 14.3425 12.619C14.7645 12.4275 15.1406 12.1479 15.4456 11.7991L20.7935 5.6875H5.2065Z" fill="black"/>
</svg>
