<svg width="26" height="26" viewBox="0 0 26 26" fill="none" xmlns="http://www.w3.org/2000/svg">
<g clip-path="url(#clip0_786_7148)">
<path fill-rule="evenodd" clip-rule="evenodd" d="M12.0068 3.51483C12.5701 3.33406 13.172 3.31046 13.7477 3.44658L13.9915 3.51483L21.07 5.78549C21.2758 5.85374 21.4611 5.98158 21.5965 6.16033L21.6723 6.27408L24.6515 11.4167C24.7268 11.5466 24.7744 11.6907 24.791 11.84C24.8077 11.9892 24.7932 12.1403 24.7484 12.2836C24.7035 12.4269 24.6294 12.5594 24.5307 12.6725C24.4319 12.7857 24.3107 12.8771 24.1748 12.9409L24.0448 12.9918L21.8229 13.7047V18.3955C21.8227 18.8244 21.6953 19.2435 21.4567 19.5999C21.2182 19.9563 20.8792 20.2339 20.4828 20.3975L20.3181 20.4582L13.9915 22.4862C13.4282 22.6669 12.8263 22.6905 12.2506 22.5544L12.0068 22.4872L5.68014 20.4582C5.27168 20.327 4.91136 20.0775 4.64483 19.7414C4.3783 19.4052 4.21755 18.9975 4.18297 18.5699L4.17539 18.3944V13.7047L1.95347 12.9918C1.81058 12.946 1.67877 12.8709 1.56641 12.7715C1.45405 12.672 1.36357 12.5502 1.30073 12.414C1.23789 12.2777 1.20405 12.1298 1.20135 11.9798C1.19865 11.8297 1.22715 11.6808 1.28505 11.5423L1.3468 11.4167L4.32597 6.27408C4.43764 6.0814 4.60597 5.92782 4.80805 5.83424L4.92722 5.78549L12.0068 3.51483ZM14.0825 13.3309V20.1819L19.6562 18.3944V14.4002L16.3087 15.4737C16.094 15.5426 15.8632 15.5428 15.6485 15.4742C15.4337 15.4057 15.2456 15.2718 15.1106 15.0913L15.0412 14.9852L14.0825 13.3309ZM11.9158 13.3309L10.9571 14.9852C10.8332 15.1989 10.6399 15.3639 10.4094 15.4528C10.1789 15.5417 9.92487 15.5491 9.68956 15.4737L6.34205 14.4002V18.3944L11.9158 20.183V13.3309ZM5.76247 8.11466L3.89589 11.3397L9.51947 13.1446L11.3882 9.91949L5.76247 8.11466ZM20.2358 8.11466L14.6101 9.91949L16.4777 13.1446L22.1024 11.3397L20.2358 8.11466ZM13.3296 5.57749C13.1581 5.52272 12.9756 5.51155 12.7987 5.54499L12.6687 5.57749L8.80664 6.81683L12.9991 8.16124L17.1916 6.81683L13.3296 5.57749Z" fill="#D11313"/>
</g>
<defs>
<clipPath id="clip0_786_7148">
<rect width="26" height="26" fill="white"/>
</clipPath>
</defs>
</svg>
