<svg width="26" height="26" viewBox="0 0 26 26" fill="none" xmlns="http://www.w3.org/2000/svg">
<path d="M18.4168 16.9366C17.7228 16.9366 17.1327 16.6936 16.6467 16.2075C16.1599 15.7215 15.9165 15.1311 15.9165 14.4363C15.9165 13.7415 16.1599 13.1511 16.6467 12.665C17.1334 12.179 17.7235 11.9363 18.4168 11.937C19.1102 11.9378 19.7006 12.1808 20.1881 12.6661C20.6741 13.1529 20.9172 13.7433 20.9172 14.4374C20.9172 15.1314 20.6738 15.7218 20.187 16.2086C19.7002 16.6954 19.1102 16.9373 18.4168 16.9366ZM18.4168 15.8544C18.8068 15.8544 19.1405 15.7157 19.4178 15.4384C19.6952 15.161 19.8338 14.8274 19.8338 14.4374C19.8338 14.0474 19.6952 13.7137 19.4178 13.4364C19.1405 13.159 18.8068 13.0204 18.4168 13.0204C18.0268 13.0204 17.6932 13.159 17.4158 13.4364C17.1385 13.7137 16.9998 14.0474 16.9998 14.4374C16.9998 14.8274 17.1385 15.161 17.4158 15.4384C17.6932 15.7157 18.0268 15.8544 18.4168 15.8544ZM13.5418 23.3326C13.2941 23.3326 13.0865 23.2488 12.9189 23.0813C12.7514 22.9137 12.6672 22.7061 12.6665 22.4584V20.9417C12.6665 20.6933 12.7257 20.4596 12.8442 20.2408C12.9626 20.0227 13.1287 19.8486 13.3425 19.7186C13.8365 19.4167 14.2648 19.2051 14.6273 19.0838C14.9899 18.9624 15.4579 18.8527 16.0313 18.7544C16.2177 18.7219 16.3982 18.7259 16.573 18.7664C16.7485 18.8061 16.8944 18.8985 17.0107 19.0437L18.4168 20.8529L19.7959 19.0426C19.9129 18.8895 20.0588 18.7949 20.2336 18.7588C20.4084 18.7227 20.5907 18.7209 20.7807 18.7534C21.3649 18.8516 21.8333 18.9606 22.1857 19.0805C22.5389 19.2011 22.9722 19.4135 23.4857 19.7175C23.6995 19.8468 23.8631 20.0194 23.9765 20.2354C24.0899 20.4513 24.1534 20.6792 24.1672 20.9189V22.4573C24.1672 22.705 24.083 22.9126 23.9147 23.0802C23.7465 23.2478 23.5388 23.3315 23.2918 23.3315L13.5418 23.3326ZM13.7227 22.2493H18.1167L16.2166 19.7533C15.776 19.8573 15.3477 19.992 14.9317 20.1574C14.5165 20.3235 14.1135 20.5156 13.7227 20.7337V22.2493ZM18.7169 22.2493H23.0827V20.7326C22.6971 20.5109 22.2962 20.3217 21.8802 20.1649C21.4642 20.0089 21.0363 19.8789 20.5965 19.7749L18.7169 22.2493ZM5.41683 20.582V5.41536V9.37603V8.9362V20.582ZM6.09391 21.6654C5.6028 21.6654 5.18644 21.4938 4.84483 21.1508C4.50394 20.8092 4.3335 20.3979 4.3335 19.9169V6.08161C4.3335 5.60061 4.50502 5.18895 4.84808 4.84661C5.19113 4.50428 5.6028 4.33275 6.08308 4.33203H19.9172C20.3982 4.33203 20.8099 4.50356 21.1522 4.84661C21.4946 5.18967 21.6661 5.60134 21.6668 6.08161V10.0824C21.5029 9.92925 21.3364 9.79095 21.1674 9.66745C20.9984 9.54395 20.8038 9.44897 20.5835 9.38253V6.0827C20.5835 5.8877 20.521 5.72773 20.3961 5.60278C20.2711 5.47784 20.1115 5.41536 19.9172 5.41536H6.08308C5.8888 5.41536 5.72919 5.47784 5.60425 5.60278C5.4793 5.72773 5.41683 5.8877 5.41683 6.0827V19.9158C5.41683 20.1101 5.4793 20.2697 5.60425 20.3946C5.72919 20.5196 5.88916 20.582 6.08416 20.582H9.70466C9.69238 20.642 9.683 20.7019 9.6765 20.7619C9.67 20.8211 9.66675 20.8807 9.66675 20.9406V21.6654H6.09391ZM8.66683 9.4562H16.1667C16.4282 9.30453 16.7034 9.19367 16.9922 9.12361C17.2811 9.05428 17.5754 9.00589 17.8752 8.97845V8.91453C17.8752 8.7607 17.8232 8.63214 17.7192 8.52886C17.6152 8.42559 17.4866 8.37359 17.3335 8.37286H8.66683C8.513 8.37286 8.38444 8.42486 8.28116 8.52886C8.17788 8.63286 8.12588 8.76178 8.12516 8.91561C8.12444 9.06945 8.17644 9.198 8.28116 9.30128C8.38588 9.40456 8.51444 9.4562 8.66683 9.4562ZM8.66683 13.5404H13.0218C13.0493 13.3418 13.0861 13.1554 13.1323 12.9814C13.1793 12.808 13.2334 12.6333 13.2948 12.457H8.66683C8.513 12.457 8.38444 12.509 8.28116 12.613C8.17788 12.717 8.12588 12.8459 8.12516 12.9998C8.12444 13.1536 8.17644 13.2822 8.28116 13.3854C8.38588 13.4887 8.51444 13.5404 8.66683 13.5404ZM8.66683 17.6245H11.1531C11.3387 17.475 11.5304 17.3338 11.7283 17.2009C11.9262 17.0681 12.1284 16.9543 12.335 16.8597V16.7904C12.335 16.7239 12.3177 16.6658 12.283 16.6159C12.2483 16.5661 12.1826 16.5408 12.0858 16.5401H8.66683C8.513 16.5401 8.38444 16.5921 8.28116 16.6961C8.17716 16.8001 8.12516 16.929 8.12516 17.0829C8.12516 17.2367 8.17716 17.3653 8.28116 17.4685C8.38516 17.5718 8.51372 17.6234 8.66683 17.6234" fill="black"/>
</svg>
