<svg width="18" height="31" viewBox="0 0 18 31" fill="none" xmlns="http://www.w3.org/2000/svg">
<path d="M8.9784 30.625C8.35496 30.625 7.85621 30.1547 7.83434 29.5531L7.75121 27.3438H5.50902C5.4409 27.3433 5.37353 27.3294 5.31078 27.3029C5.24804 27.2764 5.19115 27.2377 5.14338 27.1891C5.09562 27.1406 5.05792 27.083 5.03245 27.0198C5.00698 26.9567 4.99424 26.8891 4.99496 26.8209V26.5781C4.99496 25.1661 6.12152 24.01 7.52043 24.01H7.62762L7.56855 22.4306H6.50324C3.69449 22.4306 1.55293 19.507 2.84246 16.4937C3.45496 15.0609 4.93043 14.1925 6.47152 14.1925H7.26121L7.20324 12.6142H4.29605C1.4873 12.6142 -0.655352 9.69062 0.634179 6.67734C1.24668 5.24234 2.72215 4.375 4.26434 4.375H6.89699L6.81277 2.1875C6.76793 0.995312 7.7534 0 9.00027 0C10.234 0 11.2206 0.995312 11.1856 2.1875L11.1046 4.375H17.2351C17.5195 4.375 17.7492 4.60797 17.7492 4.89781C17.7492 6.45422 16.5132 7.70984 14.9842 7.70984H10.9811L10.9209 9.28922H12.6118C15.4217 9.28922 17.5632 12.2128 16.2737 15.2261C15.6612 16.6589 14.1857 17.5273 12.6446 17.5273H10.6146L10.5556 19.1056H11.4426C14.2514 19.1056 16.394 22.0292 15.1045 25.0425C14.492 26.4764 13.0165 27.3438 11.4754 27.3438H10.2482L10.1662 29.5531C10.1443 30.1547 9.63356 30.625 9.02215 30.625H8.9784ZM7.44496 19.1056L7.3859 17.5273H6.50434C6.07777 17.5273 5.72777 17.8828 5.72777 18.3159C5.72777 18.7502 6.08871 19.1056 6.50434 19.1056H7.44496ZM7.07855 9.28922L7.02059 7.70984H4.29605C3.86949 7.70984 3.51949 8.07734 3.51949 8.49953C3.51949 8.92172 3.86949 9.27828 4.29605 9.28922H7.07855ZM10.7984 12.6131L10.7393 14.1914H12.6129C13.0395 14.1914 13.3895 13.8359 13.3895 13.4028C13.3887 13.1959 13.307 12.9975 13.1619 12.8499C13.0168 12.7024 12.8198 12.6174 12.6129 12.6131H10.7984ZM10.4331 22.4295L10.374 24.0089H11.4437C11.8593 24.0089 12.2203 23.6523 12.2203 23.2192C12.2195 23.0123 12.1378 22.8139 11.9927 22.6663C11.8476 22.5188 11.6506 22.4338 11.4437 22.4295H10.4331ZM15.565 6.33281C15.8603 6.33281 16.1118 6.08125 16.1118 5.78594C16.1118 5.47969 15.8603 5.23906 15.565 5.23906C15.2696 5.23906 15.0181 5.47969 15.0181 5.78594C15.0181 6.09219 15.2587 6.33281 15.565 6.33281Z" fill="black"/>
</svg>
