<svg width="27" height="26" viewBox="0 0 27 26" fill="none" xmlns="http://www.w3.org/2000/svg">
<path d="M21.6248 23.8333C22.0558 23.8333 22.4691 23.6621 22.7739 23.3574C23.0786 23.0526 23.2498 22.6393 23.2498 22.2083V18.4167C23.2498 17.9857 23.0786 17.5724 22.7739 17.2676C22.4691 16.9629 22.0558 16.7917 21.6248 16.7917C20.3573 16.7917 19.1115 16.5967 17.9198 16.1958C17.6349 16.1059 17.3308 16.0957 17.0405 16.1664C16.7503 16.237 16.4849 16.3859 16.2732 16.5967L14.7132 18.1567C12.0181 16.686 9.80305 14.4709 8.33234 11.7758L9.8815 10.2267C10.3257 9.80417 10.4882 9.17583 10.2932 8.56917C9.90317 7.38833 9.70817 6.1425 9.70817 4.875C9.70817 4.44402 9.53697 4.0307 9.23222 3.72595C8.92747 3.4212 8.51415 3.25 8.08317 3.25H4.2915C3.86053 3.25 3.4472 3.4212 3.14246 3.72595C2.83771 4.0307 2.6665 4.44402 2.6665 4.875C2.6665 15.3292 11.1707 23.8333 21.6248 23.8333ZM4.2915 4.33333H8.08317C8.22683 4.33333 8.3646 4.3904 8.46619 4.49198C8.56777 4.59357 8.62484 4.73134 8.62484 4.875C8.62484 6.26167 8.8415 7.61583 9.264 8.905C9.31817 9.05667 9.30734 9.27333 9.134 9.44667L6.99984 11.57C8.78734 15.0692 11.409 17.6908 14.919 19.5L17.0315 17.3658C17.1832 17.2142 17.389 17.1708 17.584 17.225C18.884 17.6583 20.2382 17.875 21.6248 17.875C21.7685 17.875 21.9063 17.9321 22.0079 18.0336C22.1094 18.1352 22.1665 18.273 22.1665 18.4167V22.2083C22.1665 22.352 22.1094 22.4898 22.0079 22.5913C21.9063 22.6929 21.7685 22.75 21.6248 22.75C11.7665 22.75 3.74984 14.7333 3.74984 4.875C3.74984 4.73134 3.80691 4.59357 3.90849 4.49198C4.01007 4.3904 4.14784 4.33333 4.2915 4.33333Z" fill="black"/>
</svg>
