<svg width="26" height="26" viewBox="0 0 26 26" fill="none" xmlns="http://www.w3.org/2000/svg">
<path d="M17.3332 9.33333V6.08333H8.66658V9.33333H7.58325V5H18.4166V9.33333H17.3332ZM19.0828 13.125C19.3898 13.125 19.6472 13.021 19.8552 12.813C20.0632 12.605 20.1669 12.3479 20.1662 12.0417C20.1654 11.7354 20.0618 11.478 19.8552 11.2692C19.6487 11.0605 19.3912 10.9565 19.0828 10.9572C18.7744 10.958 18.5173 11.062 18.3115 11.2692C18.1057 11.4765 18.0017 11.734 17.9995 12.0417C17.9973 12.3493 18.1013 12.6064 18.3115 12.813C18.5217 13.0196 18.7781 13.1236 19.0828 13.125ZM17.3332 20.5827V15.6665H8.66658V20.5827H17.3332ZM18.4166 21.666H7.58325V17.3327H3.875V9.33333H22.1248V17.3327H18.4166V21.666ZM21.0415 16.2493V10.4167H4.95833V16.2493H7.58325V14.5832H18.4166V16.2493H21.0415Z" fill="black"/>
</svg>
