<svg width="26" height="27" viewBox="0 0 26 27" fill="none" xmlns="http://www.w3.org/2000/svg">
<path d="M22.4583 18.5211V8.84692C22.4592 8.72245 22.4295 8.59967 22.3717 8.48943C22.2919 8.31739 22.1537 8.17921 21.9817 8.09942L13.315 4.22109C13.2095 4.17321 13.095 4.14844 12.9792 4.14844C12.8633 4.14844 12.7488 4.17321 12.6433 4.22109L3.97667 8.09942C3.83728 8.16957 3.71942 8.27604 3.63552 8.40761C3.55162 8.53918 3.5048 8.69096 3.5 8.84692V18.4019C3.5081 18.5571 3.55627 18.7075 3.6398 18.8385C3.72334 18.9695 3.8394 19.0766 3.97667 19.1494L12.6433 23.0278C12.7482 23.0778 12.863 23.1038 12.9792 23.1038C13.0954 23.1038 13.2101 23.0778 13.315 23.0278L21.9817 19.1494C22.1068 19.0921 22.2158 19.0048 22.2989 18.8951C22.3821 18.7855 22.4369 18.657 22.4583 18.5211ZM5.125 10.0928L12.1667 13.2561V21.0344L5.125 17.8819V10.0928ZM13.7917 13.2561L20.8333 10.0928V17.8819L13.7917 21.0344V13.2561ZM13.0008 5.84609L19.685 8.84692L13.0008 11.8369L6.31667 8.84692L13.0008 5.84609Z" fill="black"/>
</svg>
