<svg width="26" height="27" viewBox="0 0 26 27" fill="none" xmlns="http://www.w3.org/2000/svg">
<path d="M19.9924 18.1095C19.9924 18.2649 19.9307 18.414 19.8208 18.5239C19.7109 18.6337 19.5618 18.6955 19.4064 18.6955H5.34376C5.18836 18.6955 5.03932 18.6337 4.92943 18.5239C4.81955 18.414 4.75781 18.2649 4.75781 18.1095V6.39063C4.75781 6.23523 4.81955 6.08619 4.92943 5.97631C5.03932 5.86642 5.18836 5.80469 5.34376 5.80469C5.49916 5.80469 5.6482 5.86642 5.75808 5.97631C5.86797 6.08619 5.9297 6.23523 5.9297 6.39063V14.3514L9.61676 10.6636C9.67118 10.6092 9.7358 10.5659 9.80694 10.5365C9.87807 10.507 9.95432 10.4918 10.0313 10.4918C10.1083 10.4918 10.1846 10.507 10.2557 10.5365C10.3268 10.5659 10.3915 10.6092 10.4459 10.6636L12.3751 12.5936L16.2343 8.73441H14.7189C14.5635 8.73441 14.4144 8.67268 14.3046 8.56279C14.1947 8.45291 14.1329 8.30387 14.1329 8.14847C14.1329 7.99307 14.1947 7.84403 14.3046 7.73414C14.4144 7.62426 14.5635 7.56252 14.7189 7.56252H17.6486C17.804 7.56252 17.953 7.62426 18.0629 7.73414C18.1728 7.84403 18.2345 7.99307 18.2345 8.14847V11.0782C18.2345 11.2336 18.1728 11.3826 18.0629 11.4925C17.953 11.6024 17.804 11.6641 17.6486 11.6641C17.4932 11.6641 17.3442 11.6024 17.2343 11.4925C17.1244 11.3826 17.0627 11.2336 17.0627 11.0782V9.56279L12.7897 13.8365C12.7352 13.891 12.6706 13.9342 12.5995 13.9637C12.5283 13.9932 12.4521 14.0084 12.3751 14.0084C12.2981 14.0084 12.2218 13.9932 12.1507 13.9637C12.0796 13.9342 12.015 13.891 11.9605 13.8365L10.0313 11.9066L5.9297 16.0082V17.5236H19.4064C19.5618 17.5236 19.7109 17.5853 19.8208 17.6952C19.9307 17.8051 19.9924 17.9541 19.9924 18.1095Z" fill="black"/>
</svg>
