<svg width="25" height="26" viewBox="0 0 25 26" fill="none" xmlns="http://www.w3.org/2000/svg">
<g id="material-symbols:search-rounded">
<path id="Vector" d="M9.89583 17.1667C8.00347 17.1667 6.40208 16.5111 5.09167 15.2C3.78125 13.8889 3.12569 12.2875 3.125 10.3958C3.12431 8.50417 3.77986 6.90278 5.09167 5.59167C6.40347 4.28056 8.00486 3.625 9.89583 3.625C11.7868 3.625 13.3885 4.28056 14.701 5.59167C16.0135 6.90278 16.6688 8.50417 16.6667 10.3958C16.6667 11.1597 16.5451 11.8802 16.3021 12.5573C16.059 13.2344 15.7292 13.8333 15.3125 14.3542L21.1458 20.1875C21.3368 20.3785 21.4323 20.6215 21.4323 20.9167C21.4323 21.2118 21.3368 21.4549 21.1458 21.6458C20.9549 21.8368 20.7118 21.9323 20.4167 21.9323C20.1215 21.9323 19.8785 21.8368 19.6875 21.6458L13.8542 15.8125C13.3333 16.2292 12.7344 16.559 12.0573 16.8021C11.3802 17.0451 10.6597 17.1667 9.89583 17.1667ZM9.89583 15.0833C11.1979 15.0833 12.3049 14.6278 13.2167 13.7167C14.1285 12.8056 14.584 11.6986 14.5833 10.3958C14.5826 9.09306 14.1271 7.98646 13.2167 7.07604C12.3063 6.16563 11.1993 5.70972 9.89583 5.70833C8.59236 5.70694 7.48576 6.16285 6.57604 7.07604C5.66632 7.98924 5.21042 9.09583 5.20833 10.3958C5.20625 11.6958 5.66215 12.8028 6.57604 13.7167C7.48993 14.6306 8.59653 15.0861 9.89583 15.0833Z" fill="#757575"/>
</g>
</svg>
