<svg width="20" height="21" viewBox="0 0 20 21" fill="none" xmlns="http://www.w3.org/2000/svg">
<path d="M8.91721 9.54167V5.75H11.0839V9.54167H14.8755V11.7083H11.0839L11.0833 15.5H8.91667V11.7083H5.125V9.54167H8.91721Z" fill="black"/>
<path fill-rule="evenodd" clip-rule="evenodd" d="M4.48534 17.6615C5.81134 18.8591 7.26409 19.8482 8.90426 20.6282C9.78284 21.0453 10.825 21.0074 11.6673 20.5269C13.0881 19.7166 14.3247 18.741 15.5202 17.6615C18.0546 15.3724 19.5318 12.2226 19.6287 8.90058L19.7419 5.02712C19.7549 4.57645 19.7425 3.58304 19.7425 3.58304C19.1734 3.4933 18.6023 3.41636 18.0297 3.35229C16.2585 3.13995 14.4948 2.92924 12.9473 1.98295L11.8439 1.30858C11.3752 1.02494 10.8379 0.875 10.2901 0.875C9.74232 0.875 9.20498 1.02494 8.73634 1.30858L7.67955 1.95479C5.90992 3.03595 3.75355 3.2407 1.66651 3.43895C1.19363 3.48391 0.724007 3.52887 0.26359 3.58304C0.26359 3.58304 0.25059 4.58241 0.26359 5.03958L0.376799 8.90058C0.473757 12.2226 1.95088 15.3724 4.48534 17.6615ZM1.34151 4.55858C1.34151 4.73191 1.34313 4.8917 1.34692 5.00816L1.45959 8.86916C1.54788 11.8862 2.88959 14.7603 5.21117 16.8577C6.46351 17.9881 7.82905 18.9171 9.36955 19.6494C9.64695 19.7801 9.95156 19.8425 10.258 19.8314C10.5644 19.8204 10.8638 19.7363 11.131 19.586C12.4608 18.8277 13.633 17.9063 14.7943 16.8577C17.1159 14.7603 18.4576 11.8868 18.5459 8.86916L18.6591 4.9957C18.6624 4.87437 18.6645 4.70374 18.6645 4.52174C18.411 4.48961 18.1529 4.45783 17.89 4.42641L17.8607 4.42316C17.259 4.3556 16.659 4.27342 16.0613 4.1767C14.8458 3.97087 13.574 3.63558 12.3823 2.90758L11.2789 2.23266C10.9804 2.05298 10.6385 1.95804 10.2901 1.95804C9.94168 1.95804 9.59983 2.05298 9.3013 2.23266L8.24451 2.87887C6.98784 3.64641 5.60117 4.01041 4.26488 4.22545C3.43613 4.3587 2.54347 4.44375 1.70767 4.52391L1.34151 4.55858Z" fill="black"/>
</svg>
