<svg width="26" height="26" viewBox="0 0 26 26" fill="none" xmlns="http://www.w3.org/2000/svg">
<path d="M9.66658 5.77378C9.992 5.17345 10.4735 4.67215 11.0602 4.32281C11.647 3.97347 12.3171 3.78906 13 3.78906C13.6829 3.78906 14.353 3.97347 14.9398 4.32281C15.5265 4.67215 16.008 5.17345 16.3334 5.77378C16.7315 5.3512 17.2486 5.05959 17.8161 4.93764C18.3837 4.81569 18.975 4.86914 19.5115 5.09092C20.048 5.3127 20.5044 5.69233 20.8202 6.17946C21.136 6.66658 21.2962 7.2382 21.2797 7.81849C21.2632 8.39879 21.0707 8.96036 20.7277 9.42873C20.3847 9.8971 19.9074 10.2501 19.3591 10.441C18.8109 10.6319 18.2176 10.6517 17.6578 10.4976C17.0981 10.3435 16.5984 10.023 16.2251 9.57844C15.8851 10.1278 15.4103 10.5812 14.8459 10.8955C14.2815 11.2099 13.6461 11.3748 13 11.3746C12.3542 11.3747 11.7191 11.2099 11.1549 10.8957C10.5907 10.5816 10.116 10.1285 9.776 9.57953C9.40256 10.0239 8.90287 10.3443 8.34318 10.4983C7.78349 10.6522 7.19023 10.6324 6.64206 10.4414C6.0939 10.2505 5.61671 9.89742 5.27378 9.42907C4.93084 8.96073 4.73836 8.39922 4.72184 7.81898C4.70532 7.23874 4.86556 6.66719 5.18129 6.1801C5.49703 5.69301 5.95336 5.31339 6.48978 5.09157C7.02619 4.86975 7.61736 4.8162 8.18491 4.93804C8.75245 5.05988 9.26847 5.35134 9.66658 5.77378ZM10.3534 7.00878C10.4652 7.43316 10.4781 7.87752 10.3913 8.3077C10.55 8.87805 10.8911 9.38074 11.3625 9.73889C11.8339 10.097 12.4096 10.2909 13.0016 10.2909C13.5936 10.2909 14.1694 10.097 14.6407 9.73889C15.1121 9.38074 15.4532 8.87805 15.6119 8.3077C15.525 7.87722 15.5376 7.43256 15.6487 7.0077C15.5174 6.40312 15.1831 5.8617 14.7015 5.47343C14.2198 5.08516 13.6198 4.87343 13.0011 4.87343C12.3824 4.87343 11.7824 5.08516 11.3007 5.47343C10.819 5.8617 10.4847 6.4042 10.3534 7.00878ZM9.24192 7.0857C9.08893 6.6957 8.80328 6.37216 8.43525 6.17202C8.06722 5.97189 7.64039 5.90798 7.22987 5.99154C6.81936 6.07511 6.45148 6.3008 6.19098 6.62889C5.93048 6.95697 5.79405 7.36643 5.8057 7.7852C5.81735 8.20397 5.97634 8.60521 6.25469 8.9183C6.53304 9.23139 6.9129 9.43627 7.32742 9.49688C7.74194 9.55749 8.16456 9.46994 8.52089 9.24965C8.87723 9.02935 9.14444 8.69043 9.2755 8.29253C9.19992 7.89463 9.18858 7.48718 9.24192 7.0857ZM16.7267 8.29145C16.8576 8.68974 17.1249 9.02908 17.4814 9.2497C17.8379 9.47033 18.2609 9.5581 18.6757 9.49757C19.0906 9.43703 19.4708 9.23207 19.7494 8.91877C20.0281 8.60547 20.1872 8.20392 20.1989 7.78481C20.2106 7.36571 20.074 6.95592 19.8133 6.6276C19.5525 6.29927 19.1843 6.07347 18.7734 5.98993C18.3626 5.9064 17.9354 5.97049 17.5671 6.17093C17.1989 6.37137 16.9132 6.6953 16.7602 7.0857C16.8135 7.48683 16.8021 7.8939 16.7267 8.29145ZM5.36358 11.1547C5.7395 11.055 6.09483 11.1785 6.33967 11.3562C6.43717 11.4266 6.5715 11.5133 6.73508 11.5924C6.86032 11.6573 6.9553 11.7684 6.99984 11.9023C7.04437 12.0361 7.03495 12.182 6.97357 12.309C6.91219 12.436 6.8037 12.534 6.67116 12.5823C6.53862 12.6305 6.39248 12.6252 6.26383 12.5674C6.06764 12.4729 5.88021 12.3613 5.70375 12.2337C5.68618 12.2211 5.66682 12.2113 5.64633 12.2044L5.63875 12.2034C5.49268 12.2424 5.34781 12.2857 5.20433 12.3334L4.46117 12.576C4.18403 12.6663 3.93354 12.8237 3.73203 13.0343C3.53053 13.2448 3.38428 13.502 3.30633 13.7829L2.99975 16.0026C2.93908 16.4392 3.16983 16.7664 3.49808 16.8444C3.74003 16.9036 4.03361 16.9614 4.37883 17.0177C4.44911 17.0291 4.51646 17.0542 4.57704 17.0916C4.63761 17.129 4.69022 17.178 4.73187 17.2357C4.77352 17.2935 4.80338 17.3588 4.81976 17.4281C4.83614 17.4974 4.83871 17.5692 4.82733 17.6395C4.81595 17.7098 4.79084 17.7772 4.75343 17.8377C4.71602 17.8983 4.66705 17.9509 4.6093 17.9926C4.55156 18.0342 4.48618 18.0641 4.4169 18.0805C4.34761 18.0968 4.27578 18.0994 4.2055 18.088C3.88402 18.0368 3.56457 17.9736 3.24783 17.8984C2.27825 17.6677 1.80375 16.7393 1.92617 15.8542L2.2425 13.5727L2.249 13.5434C2.36764 13.0796 2.60169 12.6533 2.92938 12.3042C3.25706 11.9551 3.66773 11.6946 4.12317 11.5469L4.86525 11.3031C5.03136 11.2489 5.19747 11.1995 5.36358 11.1547ZM20.7783 11.1547C20.6111 11.1137 20.4368 11.1106 20.2681 11.1454C20.0994 11.1803 19.9407 11.2523 19.8033 11.3562C19.7058 11.4266 19.5715 11.5133 19.4079 11.5924C19.2827 11.6573 19.1877 11.7684 19.1432 11.9023C19.0986 12.0361 19.1081 12.182 19.1694 12.309C19.2308 12.436 19.3393 12.534 19.4718 12.5823C19.6044 12.6305 19.7505 12.6252 19.8792 12.5674C20.0754 12.4729 20.2628 12.3613 20.4392 12.2337C20.4568 12.2211 20.4762 12.2113 20.4967 12.2044L20.5021 12.2034H20.5042C20.6509 12.2416 20.7957 12.285 20.9387 12.3334L21.6818 12.576C22.2517 12.7634 22.6839 13.2195 22.8367 13.7829L23.1432 16.0026C23.2039 16.4392 22.9742 16.7664 22.6449 16.8444C22.3536 16.9132 22.0598 16.971 21.7642 17.0177C21.6222 17.0407 21.4952 17.1191 21.4111 17.2357C21.327 17.3523 21.2927 17.4976 21.3157 17.6395C21.3387 17.7815 21.4171 17.9085 21.5337 17.9926C21.6503 18.0767 21.7956 18.111 21.9375 18.088C22.3073 18.0266 22.6265 17.9634 22.8952 17.8984C23.8647 17.6677 24.3392 16.7393 24.2168 15.8542L23.9005 13.5727L23.894 13.5434C23.7754 13.0796 23.5413 12.6533 23.2136 12.3042C22.8859 11.9551 22.4753 11.6946 22.0198 11.5469L21.2777 11.3031C21.113 11.2492 20.9457 11.1997 20.7783 11.1547Z" fill="black"/>
<path d="M14.9404 12.9116C15.3293 12.6538 15.8721 12.4675 16.4322 12.6246C16.6012 12.6722 16.7698 12.7239 16.9381 12.7795L17.977 13.1207C18.5798 13.3165 19.1234 13.6614 19.5571 14.1236C19.9908 14.5857 20.3007 15.15 20.4578 15.7641L20.4654 15.7933L20.9052 18.974C21.0645 20.1223 20.4502 21.3031 19.2217 21.5956C17.9759 21.8925 15.9587 22.2066 13.0002 22.2066C10.0427 22.2066 8.02441 21.8925 6.77858 21.5956C5.55008 21.3031 4.93583 20.1223 5.09508 18.974L5.53491 15.7933L5.5425 15.7641C5.69965 15.15 6.00949 14.5857 6.44323 14.1236C6.87696 13.6614 7.42051 13.3165 8.02333 13.1207L9.06333 12.7795C9.23088 12.7239 9.39916 12.6722 9.56816 12.6246C10.1282 12.4664 10.671 12.6538 11.0599 12.9116C11.4748 13.1868 12.1573 13.5248 13.0002 13.5248C13.843 13.5248 14.5266 13.1868 14.9404 12.9116ZM16.1375 13.6667C15.9837 13.6234 15.7692 13.6624 15.5395 13.8141C15.0227 14.1575 14.1312 14.6081 13.0002 14.6081C11.8692 14.6081 10.9776 14.1575 10.4608 13.8141C10.2322 13.6624 10.0167 13.6234 9.86283 13.6667C9.70755 13.7101 9.55372 13.757 9.40133 13.8076L8.36133 14.1499C7.93695 14.2881 7.55368 14.5298 7.24614 14.8532C6.9386 15.1766 6.71647 15.5716 6.59983 16.0024L6.16758 19.1224C6.07008 19.8233 6.44166 20.4007 7.02991 20.5416C8.18583 20.8178 10.1196 21.1233 13.0002 21.1233C15.8807 21.1233 17.8145 20.8178 18.9704 20.5416C19.5587 20.4007 19.9292 19.8233 19.8327 19.1224L19.4005 16.0024C19.2839 15.5716 19.0617 15.1766 18.7542 14.8532C18.4466 14.5298 18.0634 14.2881 17.639 14.1499L16.599 13.8086C16.4466 13.7581 16.2928 13.7111 16.1375 13.6678" fill="black"/>
</svg>
