<svg width="26" height="26" viewBox="0 0 26 26" fill="none" xmlns="http://www.w3.org/2000/svg">
<path d="M20.5833 3.2487H19.5V1.08203H17.3333V3.2487H8.66667V1.08203H6.5V3.2487H5.41667C4.225 3.2487 3.25 4.2237 3.25 5.41536V20.582C3.25 21.1567 3.47827 21.7078 3.8846 22.1141C4.29093 22.5204 4.84203 22.7487 5.41667 22.7487H20.5833C21.7858 22.7487 22.75 21.7845 22.75 20.582V5.41536C22.75 4.84073 22.5217 4.28963 22.1154 3.8833C21.7091 3.47697 21.158 3.2487 20.5833 3.2487ZM20.5833 20.582H5.41667V9.7487H20.5833V20.582ZM5.41667 7.58203V5.41536H20.5833V7.58203H5.41667ZM11.44 18.9137L17.875 12.4895L16.7158 11.3412L11.44 16.617L9.15417 14.3312L8.00583 15.4795L11.44 18.9137Z" fill="#0569FF"/>
</svg>
