<svg width="26" height="26" viewBox="0 0 26 26" fill="none" xmlns="http://www.w3.org/2000/svg">
<path d="M22.4583 17.8961V8.22192C22.4592 8.09745 22.4295 7.97467 22.3717 7.86443C22.2919 7.69239 22.1537 7.55421 21.9817 7.47442L13.315 3.59609C13.2095 3.54821 13.095 3.52344 12.9792 3.52344C12.8633 3.52344 12.7488 3.54821 12.6433 3.59609L3.97667 7.47442C3.83728 7.54457 3.71942 7.65104 3.63552 7.78261C3.55162 7.91418 3.5048 8.06596 3.5 8.22192V17.7769C3.5081 17.9321 3.55627 18.0825 3.6398 18.2135C3.72334 18.3445 3.8394 18.4516 3.97667 18.5244L12.6433 22.4028C12.7482 22.4528 12.863 22.4788 12.9792 22.4788C13.0954 22.4788 13.2101 22.4528 13.315 22.4028L21.9817 18.5244C22.1068 18.4671 22.2158 18.3798 22.2989 18.2701C22.3821 18.1605 22.4369 18.032 22.4583 17.8961ZM5.125 9.46776L12.1667 12.6311V20.4094L5.125 17.2569V9.46776ZM13.7917 12.6311L20.8333 9.46776V17.2569L13.7917 20.4094V12.6311ZM13.0008 5.22109L19.685 8.22192L13.0008 11.2119L6.31667 8.22192L13.0008 5.22109Z" fill="#0569FF"/>
</svg>
