<svg width="26" height="26" viewBox="0 0 26 26" fill="none" xmlns="http://www.w3.org/2000/svg">
<g id="Component 52">
<path id="Vector" d="M5.41667 9.7487H20.5833V12.9987H22.75V5.41536C22.75 4.2237 21.775 3.2487 20.5833 3.2487H19.5V1.08203H17.3333V3.2487H8.66667V1.08203H6.5V3.2487H5.41667C4.225 3.2487 3.25 4.2237 3.25 5.41536V20.582C3.25 21.7737 4.225 22.7487 5.41667 22.7487H9.75V20.582H5.41667V9.7487ZM20.5833 5.41536V7.58203H5.41667V5.41536H20.5833ZM17.3333 18.4154H11.9167V20.582H17.3333V23.832L21.6667 19.4987L17.3333 15.1654V18.4154ZM21.6667 15.1654V23.832H23.8333V15.1654H21.6667Z" fill="#FF006E"/>
</g>
</svg>
